<svg width="141" height="161" viewBox="0 0 141 161" fill="none" xmlns="http://www.w3.org/2000/svg">
<path d="M141 0H0V161H141V0Z" fill="#21498E"/>
<path d="M74.4495 136.03L73.1836 136.536C72.9195 135.843 72.427 135.491 71.7135 135.491C71.2903 135.491 70.9495 135.601 70.7042 135.828C70.4701 136.041 70.354 136.316 70.354 136.64C70.354 136.888 70.4401 137.086 70.6012 137.245C70.7622 137.41 71.0281 137.541 71.4027 137.663L72.4532 137.996C72.7641 138.09 73.0562 138.241 73.3278 138.447C73.603 138.657 73.8053 138.912 73.9439 139.211C74.0881 139.528 74.148 139.852 74.148 140.19C74.148 140.954 73.8821 141.608 73.3671 142.179C72.8446 142.729 72.0862 143.008 71.0862 143.008C69.5375 143.008 68.5225 142.321 68.0637 140.924L69.3278 140.438C69.6311 141.319 70.251 141.75 71.1648 141.75C71.6911 141.75 72.0881 141.615 72.339 141.357C72.5937 141.093 72.7248 140.797 72.7248 140.454C72.7248 140.265 72.6836 140.093 72.5843 139.949C72.4888 139.81 72.3633 139.711 72.2192 139.636C72.0675 139.554 71.7809 139.455 71.3353 139.316C70.7192 139.123 70.2678 138.942 69.9626 138.777C69.663 138.603 69.412 138.35 69.2248 138.017C69.0356 137.693 68.9401 137.298 68.9401 136.85C68.9401 136.082 69.1911 135.459 69.7004 134.966C70.2098 134.478 70.9008 134.242 71.7828 134.242C73.0693 134.242 73.9682 134.837 74.4532 136.034" fill="#75BF44"/>
<path d="M76.6012 139.526C76.6012 140.344 76.7454 140.926 77.0413 141.275C77.3371 141.627 77.706 141.795 78.1255 141.795C78.8652 141.795 79.4158 141.348 79.7716 140.451C80.1124 139.55 80.2959 138.623 80.2959 137.661C80.2959 136.197 79.766 135.455 78.706 135.455C78.0038 135.455 77.4701 135.923 77.1236 136.846C76.7735 137.771 76.6049 138.657 76.6049 139.528M75.1424 139.26C75.1424 137.974 75.472 136.809 76.133 135.768C76.7903 134.717 77.678 134.203 78.7866 134.203C79.7229 134.203 80.4495 134.534 80.9813 135.212C81.5188 135.884 81.7772 136.818 81.7772 137.998C81.7772 139.322 81.442 140.486 80.7678 141.522C80.0937 142.544 79.1986 143.066 78.0824 143.066C77.2604 143.066 76.5675 142.707 75.9907 142.02C75.4233 141.325 75.1405 140.404 75.1405 139.26" fill="#75BF44"/>
<path d="M83.6779 134.433L82.3914 142.832H87.0187L87.2153 141.51H84.0524L85.1442 134.433H83.6779Z" fill="#75BF44"/>
<path d="M94.4681 134.433L93.6292 139.865C93.5149 140.574 93.3782 141.127 93.2078 141.52C93.0393 141.906 92.7359 142.256 92.2921 142.555C91.8445 142.87 91.3108 143.027 90.691 143.027C90.3052 143.027 89.9269 142.956 89.5561 142.814C89.191 142.677 88.867 142.411 88.5749 142.025C88.2996 141.645 88.1554 141.134 88.1554 140.483C88.1554 140.155 88.1929 139.764 88.2621 139.295L89.0131 134.433H90.4251L89.6741 139.378C89.5805 139.908 89.5393 140.265 89.5393 140.449C89.5393 140.889 89.6816 141.226 89.9531 141.426C90.2116 141.627 90.5281 141.73 90.8726 141.73C91.1797 141.73 91.4475 141.662 91.6891 141.525C91.9194 141.402 92.0955 141.196 92.2397 140.921C92.3633 140.653 92.485 140.174 92.588 139.496L93.3651 134.433H94.47H94.4681Z" fill="#75BF44"/>
<path d="M95.234 134.433L95.0355 135.753H96.9943L95.9063 142.832H97.3164L98.4082 135.753H100.367L100.573 134.433H95.234Z" fill="#75BF44"/>
<path d="M101.427 134.433L100.125 142.832H101.554L102.837 134.433H101.427Z" fill="#75BF44"/>
<path d="M104.931 139.526C104.931 140.344 105.079 140.926 105.382 141.275C105.678 141.627 106.043 141.795 106.463 141.795C107.21 141.795 107.757 141.348 108.105 140.451C108.459 139.55 108.631 138.623 108.631 137.661C108.631 136.197 108.101 135.455 107.041 135.455C106.332 135.455 105.805 135.923 105.463 136.846C105.109 137.771 104.933 138.657 104.933 139.528M103.47 139.26C103.47 137.974 103.803 136.809 104.461 135.768C105.127 134.717 106.013 134.203 107.118 134.203C108.051 134.203 108.77 134.534 109.315 135.212C109.845 135.884 110.112 136.818 110.112 137.998C110.112 139.322 109.775 140.486 109.103 141.522C108.429 142.544 107.526 143.066 106.412 143.066C105.599 143.066 104.908 142.707 104.326 142.02C103.755 141.325 103.468 140.404 103.468 139.26" fill="#75BF44"/>
<path d="M116.725 134.433L115.845 140.2L113.436 134.433H112.013L110.719 142.832H111.841L112.805 136.519L115.431 142.832H116.536L117.83 134.433H116.725Z" fill="#75BF44"/>
<path d="M124.159 136.03L122.899 136.536C122.627 135.843 122.139 135.491 121.42 135.491C121 135.491 120.663 135.601 120.429 135.828C120.187 136.041 120.075 136.316 120.075 136.64C120.075 136.888 120.154 137.086 120.313 137.245C120.466 137.41 120.743 137.541 121.114 137.663L122.167 137.996C122.47 138.09 122.758 138.241 123.037 138.447C123.313 138.657 123.519 138.912 123.654 139.211C123.788 139.528 123.856 139.852 123.856 140.19C123.856 140.954 123.597 141.608 123.075 142.179C122.554 142.729 121.794 143.008 120.792 143.008C119.24 143.008 118.238 142.321 117.773 140.924L119.034 140.438C119.343 141.319 119.949 141.75 120.871 141.75C121.405 141.75 121.794 141.615 122.051 141.357C122.302 141.093 122.429 140.797 122.429 140.454C122.429 140.265 122.38 140.093 122.287 139.949C122.191 139.81 122.069 139.711 121.929 139.636C121.781 139.554 121.491 139.455 121.037 139.316C120.427 139.123 119.974 138.942 119.665 138.777C119.369 138.603 119.118 138.35 118.931 138.017C118.734 137.693 118.648 137.298 118.648 136.85C118.648 136.082 118.899 135.459 119.406 134.966C119.912 134.478 120.597 134.242 121.491 134.242C122.781 134.242 123.672 134.837 124.155 136.034" fill="#75BF44"/>
<path d="M19.1161 90.2017L13.2378 128.544H23.2509L29.1292 90.2017H19.1161Z" fill="white"/>
<path d="M29.3652 100.172H38.4382L37.7547 104.786C38.4532 102.891 39.6067 101.513 41.2004 100.642C42.7996 99.7639 44.4869 99.337 46.2491 99.337C48.4682 99.337 50.2622 99.968 51.6386 101.239C53.0187 102.516 53.7004 104.192 53.7004 106.274C53.7004 107.068 53.6105 108.04 53.4457 109.161L50.4682 128.542H40.5581L43.191 111.498C43.3558 110.412 43.4419 109.688 43.4419 109.334C43.4419 107.74 42.6779 106.943 41.1292 106.943C39.0506 106.943 37.7772 108.465 37.3127 111.5L34.6873 128.544H25.0056L29.367 100.172H29.3652Z" fill="white"/>
<path d="M105.079 100.172L92.1967 128.544H84.3521L77.7229 100.172H87.8896L90.8914 115.653L97.7959 100.172H105.079Z" fill="white"/>
<path d="M116.296 115.061C111.556 115.46 109.191 117.11 109.191 120.01C109.191 121.609 109.955 122.392 111.483 122.392C112.463 122.392 113.442 121.925 114.42 120.97C115.401 120.01 116.03 118.046 116.296 115.061ZM125.457 128.544H115.273C115.215 128.007 115.191 127.563 115.191 127.228C115.191 126.277 115.26 125.142 115.38 123.845C113.335 127.411 110.479 129.2 106.824 129.2C104.347 129.2 102.343 128.419 100.815 126.859C99.2828 125.307 98.5188 123.363 98.5188 121.023C98.5188 119.285 98.9289 117.684 99.7585 116.231C100.575 114.782 101.744 113.623 103.255 112.758C104.766 111.899 106.315 111.337 107.903 111.069C109.476 110.796 112.569 110.421 117.17 109.95C117.393 109.262 117.494 108.716 117.494 108.319C117.494 106.77 116.504 105.99 114.508 105.99C112.511 105.99 111.103 107.046 110.178 109.161L101.689 107.28C103.841 102.026 108.567 99.3932 115.865 99.3932C119.562 99.3932 122.47 100.088 124.59 101.481C126.702 102.87 127.764 104.934 127.764 107.654C127.764 108.866 127.148 113.176 125.905 120.566C125.444 123.324 125.21 125.148 125.21 126.052C125.21 126.779 125.3 127.61 125.457 128.542" fill="white"/>
<path d="M81.0206 114.29C81.0206 122.89 74.6198 129.857 66.7303 129.857C58.8408 129.857 52.4401 122.89 52.4401 114.29C52.4401 105.69 58.8352 98.7229 66.7303 98.7229C74.6255 98.7229 81.0206 105.696 81.0206 114.29Z" fill="#75BF44"/>
<path d="M80.8034 114.236C80.8034 122.727 74.485 129.612 66.6929 129.612C58.9007 129.612 52.5712 122.725 52.5712 114.236C52.5712 105.746 58.8933 98.8465 66.6929 98.8465C74.4925 98.8465 80.8034 105.739 80.8034 114.236Z" fill="#75BF44"/>
<path d="M80.6011 114.176C80.6011 122.562 74.3502 129.359 66.6554 129.359C58.9607 129.359 52.7097 122.562 52.7097 114.176C52.7097 105.789 58.9457 98.9832 66.6554 98.9832C74.3651 98.9832 80.6011 105.787 80.6011 114.176Z" fill="#8BC542"/>
<path d="M80.3802 114.11C80.3802 122.39 74.2154 129.115 66.6161 129.115C59.0169 129.115 52.8446 122.39 52.8446 114.11C52.8446 105.83 59.0094 99.1142 66.6161 99.1142C74.2229 99.1142 80.3802 105.825 80.3802 114.11Z" fill="#8EC63F"/>
<path d="M80.1705 114.05C80.1705 122.231 74.0881 128.861 66.575 128.861C59.0618 128.861 52.9869 122.231 52.9869 114.05C52.9869 105.87 59.0693 99.2528 66.575 99.2528C74.0806 99.2528 80.1705 105.874 80.1705 114.05Z" fill="#8FC441"/>
<path d="M80.0487 114.013C80.0487 122.096 74.0263 128.653 66.6049 128.653C59.1836 128.653 53.1573 122.094 53.1573 114.013C53.1573 105.932 59.1761 99.3614 66.6049 99.3614C74.0338 99.3614 80.0487 105.92 80.0487 114.013Z" fill="#91C741"/>
<path d="M79.7472 113.936C79.7472 121.903 73.8202 128.359 66.4963 128.359C59.1723 128.359 53.2584 121.903 53.2584 113.936C53.2584 105.969 59.1854 99.5074 66.4963 99.5074C73.8071 99.5074 79.7472 105.96 79.7472 113.936Z" fill="#91C741"/>
<path d="M79.5299 113.874C79.5299 121.738 73.6816 128.117 66.4625 128.117C59.2434 128.117 53.397 121.738 53.397 113.874C53.397 106.01 59.2453 99.6385 66.4625 99.6385C73.6797 99.6385 79.5299 106.008 79.5299 113.874Z" fill="#91C741"/>
<path d="M79.3165 113.816C79.3165 121.575 73.5412 127.859 66.4232 127.859C59.3052 127.859 53.5337 121.575 53.5337 113.816C53.5337 106.057 59.3052 99.7658 66.4232 99.7658C73.5412 99.7658 79.3165 106.057 79.3165 113.816Z" fill="#93C840"/>
<path d="M79.103 113.754C79.103 121.41 73.4064 127.612 66.3858 127.612C59.3652 127.612 53.6686 121.41 53.6686 113.754C53.6686 106.098 59.354 99.9062 66.3858 99.9062C73.4176 99.9062 79.103 106.104 79.103 113.754Z" fill="#93C840"/>
<path d="M78.8896 113.702C78.8896 121.244 73.2735 127.359 66.3446 127.359C59.4158 127.359 53.7997 121.244 53.7997 113.702C53.7997 106.16 59.4233 100.03 66.3446 100.03C73.266 100.03 78.8896 106.149 78.8896 113.702Z" fill="#96C93F"/>
<path d="M78.6835 113.64C78.6835 121.075 73.1461 127.118 66.3034 127.118C59.4607 127.118 53.9438 121.075 53.9438 113.64C53.9438 106.205 59.4813 100.157 66.3034 100.157C73.1255 100.157 78.6835 106.196 78.6835 113.64Z" fill="#96C93F"/>
<path d="M78.4663 113.582C78.4663 120.912 73.0075 126.859 66.2641 126.859C59.5206 126.859 54.0806 120.912 54.0806 113.582C54.0806 106.252 59.5356 100.299 66.2641 100.299C72.9926 100.299 78.4663 106.239 78.4663 113.582Z" fill="#96C93F"/>
<path d="M78.2528 113.511C78.2528 120.75 72.8708 126.61 66.2378 126.61C59.6049 126.61 54.2191 120.75 54.2191 113.511C54.2191 106.272 59.5993 100.429 66.2378 100.429C72.8764 100.429 78.2528 106.282 78.2528 113.511Z" fill="#98C93F"/>
<path d="M78.0431 113.459C78.0431 120.581 72.7397 126.359 66.1967 126.359C59.6536 126.359 54.3502 120.583 54.3502 113.459C54.3502 106.334 59.6611 100.55 66.1967 100.55C72.7322 100.55 78.0431 106.336 78.0431 113.459Z" fill="#98C93F"/>
<path d="M77.8258 113.397C77.8258 120.424 72.6086 126.116 66.1554 126.116C59.7022 126.116 54.4906 120.424 54.4906 113.397C54.4906 106.37 59.7116 100.681 66.1554 100.681C72.5992 100.681 77.8258 106.377 77.8258 113.397Z" fill="#98C93F"/>
<path d="M77.6086 113.337C77.6086 120.255 72.4626 125.857 66.1161 125.857C59.7697 125.857 54.6199 120.255 54.6199 113.337C54.6199 106.418 59.7734 100.818 66.1161 100.818C72.4588 100.818 77.6086 106.424 77.6086 113.337Z" fill="#9BCA3E"/>
<path d="M77.4101 113.275C77.4101 120.092 72.3334 125.614 66.0862 125.614C59.839 125.614 54.7566 120.094 54.7566 113.275C54.7566 106.456 59.8334 100.945 66.0862 100.945C72.339 100.945 77.4101 106.465 77.4101 113.275Z" fill="#9BCA3E"/>
<path d="M77.1892 113.221C77.1892 119.928 72.1948 125.357 66.0525 125.357C59.9102 125.357 54.9045 119.928 54.9045 113.221C54.9045 106.514 59.8952 101.075 66.0525 101.075C72.2098 101.075 77.1892 106.512 77.1892 113.221Z" fill="#9DCB3E"/>
<path d="M76.9793 113.159C76.9793 119.763 72.0636 125.11 66.0112 125.11C59.9587 125.11 55.0355 119.763 55.0355 113.159C55.0355 106.555 59.9456 101.204 66.0112 101.204C72.0767 101.204 76.9793 106.555 76.9793 113.159Z" fill="#9DCB3E"/>
<path d="M76.7622 113.097C76.7622 119.6 71.9326 124.856 65.9757 124.856C60.0187 124.856 55.176 119.6 55.176 113.097C55.176 106.594 60.0112 101.344 65.9757 101.344C71.9401 101.344 76.7622 106.604 76.7622 113.097Z" fill="#9DCB3E"/>
<path d="M76.5506 113.041C76.5506 119.428 71.794 124.61 65.9382 124.61C60.0824 124.61 55.3127 119.426 55.3127 113.041C55.3127 106.656 60.0674 101.472 65.9382 101.472C71.809 101.472 76.5506 106.654 76.5506 113.041Z" fill="#A0CC3D"/>
<path d="M76.3352 112.985C76.3352 119.272 71.6573 124.361 65.897 124.361C60.1367 124.361 55.4438 119.272 55.4438 112.985C55.4438 106.697 60.1274 101.604 65.897 101.604C71.6667 101.604 76.3352 106.697 76.3352 112.985Z" fill="#A0CC3D"/>
<path d="M76.1293 112.929C76.1293 119.106 71.5319 124.109 65.8596 124.109C60.1873 124.109 55.59 119.106 55.59 112.929C55.59 106.752 60.1817 101.73 65.8596 101.73C71.5375 101.73 76.1293 106.744 76.1293 112.929Z" fill="#A0CC3D"/>
<path d="M75.9083 112.865C75.9083 118.935 71.3933 123.858 65.8165 123.858C60.2398 123.858 55.7173 118.937 55.7173 112.865C55.7173 106.793 60.236 101.861 65.8165 101.861C71.3971 101.861 75.9083 106.789 75.9083 112.865Z" fill="#A3CD3C"/>
<path d="M75.706 112.799C75.706 118.767 71.2622 123.609 65.7771 123.609C60.2921 123.609 55.8577 118.767 55.8577 112.799C55.8577 106.832 60.3015 101.994 65.7771 101.994C71.2528 101.994 75.706 106.828 75.706 112.799Z" fill="#A3CD3C"/>
<path d="M75.4888 112.749C75.4888 118.606 71.1311 123.361 65.7416 123.361C60.3521 123.361 55.9982 118.606 55.9982 112.749C55.9982 106.892 60.3633 102.125 65.7416 102.125C71.1199 102.125 75.4888 106.871 75.4888 112.749Z" fill="#A3CD3C"/>
<path d="M75.2716 112.68C75.2716 118.443 70.9907 123.107 65.706 123.107C60.4214 123.107 56.1349 118.443 56.1349 112.68C56.1349 106.916 60.4158 102.256 65.706 102.256C70.9963 102.256 75.2716 106.918 75.2716 112.68Z" fill="#A5CD3D"/>
<path d="M75.0618 112.622C75.0618 118.284 70.8539 122.862 65.6629 122.862C60.4719 122.862 56.2697 118.284 56.2697 112.622C56.2697 106.96 60.4756 102.383 65.6629 102.383C70.8502 102.383 75.0618 106.971 75.0618 112.622Z" fill="#A8CE3B"/>
<path d="M74.8521 112.56C74.8521 118.121 70.7154 122.611 65.6274 122.611C60.5394 122.611 56.4102 118.119 56.4102 112.56C56.4102 107.001 60.5375 102.518 65.6274 102.518C70.7173 102.518 74.8521 107.016 74.8521 112.56Z" fill="#A8CE3B"/>
<path d="M74.6385 112.5C74.6385 117.948 70.588 122.364 65.5861 122.364C60.5842 122.364 56.5449 117.948 56.5449 112.5C56.5449 107.051 60.5936 102.647 65.5861 102.647C70.5786 102.647 74.6385 107.062 74.6385 112.5Z" fill="#A8CE3C"/>
<path d="M74.4251 112.447C74.4251 117.784 70.4532 122.109 65.5487 122.109C60.6442 122.109 56.6798 117.784 56.6798 112.447C56.6798 107.111 60.6555 102.777 65.5487 102.777C70.442 102.777 74.4251 107.102 74.4251 112.447Z" fill="#AACF3C"/>
<path d="M74.2117 112.386C74.2117 117.615 70.3147 121.867 65.5113 121.867C60.7079 121.867 56.8203 117.617 56.8203 112.386C56.8203 107.154 60.7136 102.904 65.5113 102.904C70.3091 102.904 74.2117 107.15 74.2117 112.386Z" fill="#AACF3C"/>
<path d="M74.0019 112.335C74.0019 117.452 70.1854 121.613 65.4756 121.613C60.7659 121.613 56.9569 117.452 56.9569 112.335C56.9569 107.218 60.7696 103.041 65.4756 103.041C70.1816 103.041 74.0019 107.197 74.0019 112.335Z" fill="#AACF3E"/>
<path d="M73.7883 112.266C73.7883 117.295 70.0505 121.362 65.4382 121.362C60.8258 121.362 57.0955 117.297 57.0955 112.266C57.0955 107.235 60.8258 103.168 65.4382 103.168C70.0505 103.168 73.7883 107.238 73.7883 112.266Z" fill="#AACF3E"/>
<path d="M73.5749 112.208C73.5749 117.123 69.9157 121.111 65.397 121.111C60.8782 121.111 57.2322 117.125 57.2322 112.208C57.2322 107.291 60.8932 103.299 65.397 103.299C69.9007 103.299 73.5749 107.28 73.5749 112.208Z" fill="#ACD03D"/>
<path d="M73.3652 112.148C73.3652 116.958 69.7828 120.86 65.352 120.86C60.9213 120.86 57.3633 116.958 57.3633 112.148C57.3633 107.338 60.9419 103.439 65.352 103.439C69.7622 103.439 73.3652 107.332 73.3652 112.148Z" fill="#ACD03D"/>
<path d="M73.1498 112.092C73.1498 116.797 69.6498 120.605 65.3258 120.605C61.0019 120.605 57.5056 116.797 57.5056 112.092C57.5056 107.386 61.0019 103.565 65.3258 103.565C69.6498 103.565 73.1498 107.381 73.1498 112.092Z" fill="#AED13D"/>
<path d="M72.9401 112.022C72.9401 116.623 69.5112 120.353 65.2921 120.353C61.073 120.353 57.6367 116.623 57.6367 112.022C57.6367 107.422 61.0618 103.694 65.2921 103.694C69.5225 103.694 72.9401 107.42 72.9401 112.022Z" fill="#AED13D"/>
<path d="M72.7285 111.976C72.7285 116.466 69.3764 120.102 65.2491 120.102C61.1217 120.102 57.7734 116.464 57.7734 111.976C57.7734 107.487 61.1199 103.825 65.2491 103.825C69.3783 103.825 72.7285 107.471 72.7285 111.976Z" fill="#AED13D"/>
<path d="M72.5093 111.914C72.5093 116.297 69.2471 119.858 65.2134 119.858C61.1797 119.858 57.9138 116.297 57.9138 111.914C57.9138 107.531 61.191 103.958 65.2134 103.958C69.2359 103.958 72.5093 107.516 72.5093 111.914Z" fill="#B1D23E"/>
<path d="M72.2978 111.848C72.2978 116.134 69.1049 119.613 65.1742 119.613C61.2435 119.613 58.0525 116.136 58.0525 111.848C58.0525 107.56 61.2398 104.083 65.1742 104.083C69.1087 104.083 72.2978 107.562 72.2978 111.848Z" fill="#B1D23E"/>
<path d="M72.0843 111.788C72.0843 115.969 68.97 119.366 65.1386 119.366C61.3071 119.366 58.1873 115.971 58.1873 111.788C58.1873 107.605 61.2977 104.216 65.1386 104.216C68.9794 104.216 72.0843 107.604 72.0843 111.788Z" fill="#B3D23D"/>
<path d="M71.8708 111.73C71.8708 115.812 68.8427 119.109 65.1048 119.109C61.367 119.109 58.3202 115.814 58.3202 111.73C58.3202 107.647 61.3595 104.349 65.1048 104.349C68.8502 104.349 71.8708 107.656 71.8708 111.73Z" fill="#B3D23D"/>
<path d="M71.6591 111.669C71.6591 115.647 68.7059 118.864 65.058 118.864C61.41 118.864 58.4644 115.647 58.4644 111.669C58.4644 107.69 61.4213 104.475 65.058 104.475C68.6947 104.475 71.6591 107.695 71.6591 111.669Z" fill="#B6D33C"/>
<path d="M71.4513 111.61C71.4513 115.477 68.5767 118.609 65.0262 118.609C61.4756 118.609 58.6011 115.477 58.6011 111.61C58.6011 107.744 61.4719 104.606 65.0262 104.606C68.5805 104.606 71.4513 107.74 71.4513 111.61Z" fill="#B6D33C"/>
<path d="M71.2415 111.554C71.2415 115.308 68.4363 118.362 64.9906 118.362C61.5449 118.362 58.7378 115.308 58.7378 111.554C58.7378 107.8 61.5318 104.741 64.9906 104.741C68.4494 104.741 71.2415 107.789 71.2415 111.554Z" fill="#B9D43B"/>
<path d="M71.0262 111.489C71.0262 115.144 68.2996 118.102 64.9476 118.102C61.5955 118.102 58.8727 115.144 58.8727 111.489C58.8727 107.834 61.588 104.872 64.9476 104.872C68.3071 104.872 71.0262 107.832 71.0262 111.489Z" fill="#B9D43B"/>
<path d="M70.8127 111.431C70.8127 114.983 68.1667 117.857 64.9138 117.857C61.661 117.857 59.0112 114.983 59.0112 111.431C59.0112 107.879 61.6535 105.007 64.9138 105.007C68.1741 105.007 70.8127 107.884 70.8127 111.431Z" fill="#B9D43B"/>
<path d="M70.5918 111.373C70.5918 114.825 68.0337 117.608 64.8745 117.608C61.7154 117.608 59.1479 114.825 59.1479 111.373C59.1479 107.92 61.7097 105.134 64.8745 105.134C68.0393 105.134 70.5918 107.922 70.5918 111.373Z" fill="#BBD53B"/>
<path d="M70.3857 111.315C70.3857 114.653 67.9007 117.357 64.8333 117.357C61.7659 117.357 59.2809 114.653 59.2809 111.315C59.2809 107.976 61.7696 105.265 64.8333 105.265C67.897 105.265 70.3857 107.976 70.3857 111.315Z" fill="#BBD53B"/>
<path d="M70.1723 111.258C70.1723 114.49 67.7734 117.11 64.7959 117.11C61.8183 117.11 59.4232 114.49 59.4232 111.258C59.4232 108.027 61.8296 105.396 64.7959 105.396C67.7622 105.396 70.1723 108.019 70.1723 111.258Z" fill="#BED63A"/>
<path d="M69.9588 111.197C69.9588 114.329 67.6348 116.857 64.7584 116.857C61.882 116.857 59.5543 114.329 59.5543 111.197C59.5543 108.064 61.8839 105.531 64.7584 105.531C67.633 105.531 69.9588 108.06 69.9588 111.197Z" fill="#BED63A"/>
<path d="M69.7491 111.135C69.7491 114.161 67.4981 116.612 64.7173 116.612C61.9364 116.612 59.7023 114.161 59.7023 111.135C59.7023 108.109 61.9457 105.664 64.7173 105.664C67.4888 105.664 69.7491 108.111 69.7491 111.135Z" fill="#BED63A"/>
<path d="M69.5355 111.075C69.5355 113.996 67.367 116.357 64.6854 116.357C62.0037 116.357 59.8314 113.996 59.8314 111.075C59.8314 108.154 62 105.791 64.6854 105.791C67.3707 105.791 69.5355 108.152 69.5355 111.075Z" fill="#C0D73C"/>
<path d="M69.3183 111.015C69.3183 113.829 67.2303 116.104 64.6479 116.104C62.0655 116.104 59.9625 113.829 59.9625 111.015C59.9625 108.201 62.0618 105.922 64.6479 105.922C67.2341 105.922 69.3183 108.201 69.3183 111.015Z" fill="#C0D73C"/>
<path d="M69.1048 110.953C69.1048 113.664 67.0973 115.861 64.6067 115.861C62.1161 115.861 60.1011 113.664 60.1011 110.953C60.1011 108.242 62.1217 106.057 64.6067 106.057C67.0917 106.057 69.1048 108.242 69.1048 110.953Z" fill="#C0D739"/>
<path d="M68.8952 110.893C68.8952 113.503 66.957 115.608 64.5693 115.608C62.1817 115.608 60.2397 113.502 60.2397 110.893C60.2397 108.285 62.1779 106.179 64.5693 106.179C66.9607 106.179 68.8952 108.296 68.8952 110.893Z" fill="#C2D83D"/>
<path d="M68.6854 110.833C68.6854 113.335 66.8239 115.366 64.5318 115.366C62.2397 115.366 60.3801 113.335 60.3801 110.833C60.3801 108.332 62.2359 106.308 64.5318 106.308C66.8277 106.308 68.6854 108.341 68.6854 110.833Z" fill="#C2D83D"/>
<path d="M68.4719 110.777C68.4719 113.176 66.6929 115.11 64.4963 115.11C62.2997 115.11 60.515 113.176 60.515 110.777C60.515 108.379 62.2978 106.445 64.4963 106.445C66.6948 106.445 68.4719 108.39 68.4719 110.777Z" fill="#C4D83D"/>
<path d="M68.2641 110.712C68.2641 113.007 66.5506 114.857 64.4551 114.857C62.3596 114.857 60.6555 113.007 60.6555 110.712C60.6555 108.416 62.3521 106.576 64.4551 106.576C66.5581 106.576 68.2641 108.431 68.2641 110.712Z" fill="#C4D83D"/>
<path d="M68.045 110.656C68.045 112.839 66.4232 114.61 64.4214 114.61C62.4195 114.61 60.7903 112.839 60.7903 110.656C60.7903 108.472 62.4214 106.703 64.4214 106.703C66.4214 106.703 68.045 108.474 68.045 110.656Z" fill="#C4D83D"/>
<path d="M67.8315 110.598C67.8315 112.676 66.2903 114.357 64.3764 114.357C62.4626 114.357 60.927 112.678 60.927 110.598C60.927 108.517 62.4719 106.836 64.3764 106.836C66.2809 106.836 67.8315 108.515 67.8315 110.598Z" fill="#C7DA3C"/>
<path d="M67.6179 110.536C67.6179 112.504 66.1554 114.108 64.3408 114.108C62.5262 114.108 61.0618 112.504 61.0618 110.536C61.0618 108.568 62.5318 106.961 64.3408 106.961C66.1498 106.961 67.6179 108.572 67.6179 110.536Z" fill="#C7DA3C"/>
<path d="M67.4082 110.476C67.4082 112.344 66.0225 113.865 64.3052 113.865C62.588 113.865 61.2041 112.344 61.2041 110.476C61.2041 108.607 62.5955 107.098 64.3052 107.098C66.015 107.098 67.4082 108.613 67.4082 110.476Z" fill="#C9DA3B"/>
<path d="M67.191 110.42C67.191 112.185 65.882 113.614 64.2621 113.614C62.6423 113.614 61.337 112.185 61.337 110.42C61.337 108.654 62.6479 107.231 64.2621 107.231C65.8764 107.231 67.191 108.66 67.191 110.42Z" fill="#C9DA3B"/>
<path d="M66.9775 110.354C66.9775 112.021 65.7491 113.365 64.2266 113.365C62.7041 113.365 61.4775 112.021 61.4775 110.354C61.4775 108.688 62.7023 107.356 64.2266 107.356C65.7509 107.356 66.9775 108.703 66.9775 110.354Z" fill="#CCDB3A"/>
<path d="M66.7715 110.298C66.7715 111.848 65.6142 113.106 64.1891 113.106C62.764 113.106 61.6123 111.848 61.6123 110.298C61.6123 108.748 62.7621 107.491 64.1891 107.491C65.616 107.491 66.7715 108.748 66.7715 110.298Z" fill="#CCDB3A"/>
<path d="M66.5543 110.238C66.5543 111.68 65.4776 112.859 64.1517 112.859C62.8259 112.859 61.7454 111.68 61.7454 110.238C61.7454 108.796 62.8259 107.626 64.1517 107.626C65.4776 107.626 66.5543 108.796 66.5543 110.238Z" fill="#CFDC39"/>
<path d="M66.3446 110.184C66.3446 111.515 65.3427 112.61 64.118 112.61C62.8933 112.61 61.8839 111.517 61.8839 110.184C61.8839 108.851 62.8895 107.751 64.118 107.751C65.3465 107.751 66.3446 108.836 66.3446 110.184Z" fill="#CFDC39"/>
<path d="M66.1348 110.131C66.1348 111.356 65.2116 112.352 64.073 112.352C62.9344 112.352 62.0225 111.356 62.0225 110.131C62.0225 108.907 62.9457 107.883 64.073 107.883C65.2004 107.883 66.1348 108.884 66.1348 110.131Z" fill="#CFDC39"/>
<path d="M65.9176 110.062C65.9176 111.199 65.0712 112.112 64.0394 112.112C63.0075 112.112 62.1573 111.197 62.1573 110.062C62.1573 108.927 63 108.014 64.0394 108.014C65.0787 108.014 65.9176 108.937 65.9176 110.062Z" fill="#CFDC3C"/>
<path d="M65.7078 109.998C65.7078 111.024 64.9438 111.863 64.0018 111.863C63.0599 111.863 62.2977 111.024 62.2977 109.998C62.2977 108.972 63.0618 108.143 64.0018 108.143C64.9419 108.143 65.7078 108.976 65.7078 109.998Z" fill="#D0DD3C"/>
<path d="M65.4944 109.942C65.4944 110.865 64.809 111.612 63.9626 111.612C63.1161 111.612 62.4382 110.865 62.4382 109.942C62.4382 109.019 63.1161 108.279 63.9626 108.279C64.809 108.279 65.4944 109.019 65.4944 109.942Z" fill="#D0DD3C"/>
<path d="M65.2772 109.89C65.2772 110.699 64.6742 111.361 63.9307 111.361C63.1873 111.361 62.5712 110.697 62.5712 109.89C62.5712 109.083 63.176 108.412 63.9307 108.412C64.6854 108.412 65.2772 109.066 65.2772 109.89Z" fill="#D3DE3E"/>
<path d="M65.0711 109.82C65.0711 110.528 64.5412 111.111 63.8876 111.111C63.2341 111.111 62.7041 110.528 62.7041 109.82C62.7041 109.113 63.2378 108.54 63.8876 108.54C64.5374 108.54 65.0711 109.115 65.0711 109.82Z" fill="#D3DE3E"/>
<path d="M64.8539 109.759C64.8539 110.373 64.4064 110.856 63.8521 110.856C63.2977 110.856 62.8521 110.371 62.8521 109.759C62.8521 109.146 63.2959 108.665 63.8521 108.665C64.4082 108.665 64.8539 109.158 64.8539 109.759Z" fill="#D3DE3E"/>
<path d="M64.648 109.703C64.648 110.199 64.266 110.611 63.8147 110.611C63.3633 110.611 62.9813 110.199 62.9813 109.703C62.9813 109.206 63.3521 108.794 63.8147 108.794C64.2772 108.794 64.648 109.206 64.648 109.703Z" fill="#D5DF3E"/>
</svg>
