<svg width="30" height="29" viewBox="0 0 30 29" fill="none" xmlns="http://www.w3.org/2000/svg">
<path id="Vector" d="M14.5723 0C6.56404 0 0.0722656 6.49177 0.0722656 14.5C0.0722656 22.5082 6.56404 29 14.5723 29C22.5805 29 29.0723 22.5082 29.0723 14.5C29.0723 6.49177 22.5805 0 14.5723 0ZM11.0228 20.5099H8.08654V11.0608H11.0228V20.5099ZM9.53654 9.90078C8.60914 9.90078 8.00951 9.24375 8.00951 8.43115C8.00951 7.60193 8.62726 6.96453 9.5743 6.96453C10.5213 6.96453 11.1013 7.60193 11.1195 8.43115C11.1195 9.24375 10.5213 9.90078 9.53654 9.90078ZM21.7467 20.5099H18.8105V15.2733C18.8105 14.0544 18.3846 13.2267 17.3227 13.2267C16.5116 13.2267 16.0298 13.7871 15.8168 14.3263C15.7383 14.5181 15.7187 14.79 15.7187 15.0604V20.5084H12.7809V14.0741C12.7809 12.8944 12.7432 11.9081 12.7039 11.0593H15.255L15.3894 12.3718H15.4483C15.835 11.7556 16.782 10.8463 18.3664 10.8463C20.2983 10.8463 21.7467 12.1407 21.7467 14.9229V20.5099Z" fill="#8DC641"/>
</svg>
