<svg width="31" height="30" viewBox="0 0 31 30" fill="none" xmlns="http://www.w3.org/2000/svg">
<path id="Vector" d="M20.2598 15C20.2598 16.2432 19.7659 17.4355 18.8868 18.3146C18.0078 19.1936 16.8155 19.6875 15.5723 19.6875C14.3291 19.6875 13.1368 19.1936 12.2577 18.3146C11.3786 17.4355 10.8848 16.2432 10.8848 15C10.8848 14.7328 10.9129 14.4719 10.9613 14.2187H9.32226V20.4641C9.32226 20.8984 9.67383 21.25 10.1082 21.25H21.0379C21.2461 21.2496 21.4456 21.1666 21.5926 21.0193C21.7397 20.8719 21.8223 20.6722 21.8223 20.4641V14.2187H20.1832C20.2316 14.4719 20.2598 14.7328 20.2598 15ZM15.5723 18.125C15.9827 18.1249 16.3892 18.0439 16.7684 17.8868C17.1476 17.7296 17.4921 17.4993 17.7823 17.2089C18.0725 16.9186 18.3026 16.574 18.4596 16.1947C18.6166 15.8154 18.6974 15.4089 18.6973 14.9984C18.6972 14.588 18.6162 14.1815 18.459 13.8023C18.3018 13.4231 18.0715 13.0786 17.7812 12.7884C17.4909 12.4982 17.1462 12.2681 16.7669 12.1111C16.3877 11.9541 15.9812 11.8733 15.5707 11.8734C14.7417 11.8736 13.9467 12.2032 13.3607 12.7895C12.7746 13.3759 12.4455 14.171 12.4457 15C12.4459 15.829 12.7754 16.624 13.3618 17.21C13.9481 17.7961 14.7433 18.1252 15.5723 18.125ZM19.3223 11.7187H21.1957C21.3202 11.7188 21.4396 11.6694 21.5277 11.5816C21.6159 11.4937 21.6656 11.3745 21.666 11.25V9.37656C21.666 9.25183 21.6165 9.1322 21.5283 9.044C21.4401 8.9558 21.3204 8.90625 21.1957 8.90625H19.3223C19.1975 8.90625 19.0779 8.9558 18.9897 9.044C18.9015 9.1322 18.852 9.25183 18.852 9.37656V11.25C18.8535 11.5078 19.0645 11.7187 19.3223 11.7187ZM15.5723 0C11.594 0 7.77871 1.58035 4.96566 4.3934C2.15262 7.20644 0.572266 11.0218 0.572266 15C0.572266 18.9782 2.15262 22.7936 4.96566 25.6066C7.77871 28.4196 11.594 30 15.5723 30C17.5421 30 19.4926 29.612 21.3125 28.8582C23.1324 28.1044 24.786 26.9995 26.1789 25.6066C27.5717 24.2137 28.6766 22.5601 29.4305 20.7403C30.1843 18.9204 30.5723 16.9698 30.5723 15C30.5723 13.0302 30.1843 11.0796 29.4305 9.25975C28.6766 7.43986 27.5717 5.78628 26.1789 4.3934C24.786 3.00052 23.1324 1.89563 21.3125 1.14181C19.4926 0.387986 17.5421 0 15.5723 0ZM23.3848 21.0766C23.3848 22.0312 22.6035 22.8125 21.6488 22.8125H9.4957C8.54102 22.8125 7.75977 22.0312 7.75977 21.0766V8.92344C7.75977 7.96875 8.54102 7.1875 9.4957 7.1875H21.6488C22.6035 7.1875 23.3848 7.96875 23.3848 8.92344V21.0766Z" fill="#8DC641"/>
</svg>
